<svg width="60" height="64" viewBox="0 0 60 64" fill="none" xmlns="http://www.w3.org/2000/svg">
<rect x="0.5" y="2.5" width="59" height="59" rx="1.5" fill="#CEE5FF" stroke="#72777F"/>
<path d="M32.598 52.627C29.634 52.627 26.879 52.114 24.333 51.088C21.787 50.024 19.545 48.561 17.607 46.699C15.707 44.837 14.225 42.652 13.161 40.144C12.097 37.636 11.565 34.938 11.565 32.05C11.565 29.124 12.097 26.426 13.161 23.956C14.225 21.448 15.707 19.263 17.607 17.401C19.545 15.539 21.787 14.095 24.333 13.069C26.879 12.005 29.634 11.473 32.598 11.473C34.726 11.473 36.797 11.796 38.811 12.442C40.863 13.05 42.744 13.943 44.454 15.121C46.202 16.261 47.646 17.629 48.786 19.225L42.174 25.495C40.882 23.709 39.438 22.379 37.842 21.505C36.246 20.631 34.498 20.194 32.598 20.194C31.04 20.194 29.596 20.498 28.266 21.106C26.974 21.676 25.834 22.512 24.846 23.614C23.858 24.678 23.079 25.932 22.509 27.376C21.977 28.782 21.711 30.34 21.711 32.05C21.711 33.76 21.977 35.337 22.509 36.781C23.079 38.187 23.858 39.441 24.846 40.543C25.834 41.607 26.974 42.443 28.266 43.051C29.596 43.621 31.04 43.906 32.598 43.906C34.498 43.906 36.246 43.469 37.842 42.595C39.438 41.683 40.882 40.353 42.174 38.605L48.786 44.875C47.646 46.433 46.202 47.801 44.454 48.979C42.744 50.157 40.863 51.069 38.811 51.715C36.797 52.323 34.726 52.627 32.598 52.627Z" fill="#2E628C"/>
</svg>
